<?xml version="1.0"?>
<svg xmlns="http://www.w3.org/2000/svg" xmlns:xlink="http://www.w3.org/1999/xlink" version="1.1" id="Capa_1" x="0px" y="0px" viewBox="0 0 496 496" style="enable-background:new 0 0 496 496;" xml:space="preserve" width="512px" height="512px" class=""><g><g>
	<path style="fill:#F9E0A6;" d="M440,432c0,0-52.344-5.848-76.152-17.12l-86.04-40.752C258.184,364.824,236.736,360,215.016,360l0,0   c-30.576,0-60.384,9.552-85.264,27.328l-2.76,1.976C117.24,396.256,105.56,400,93.584,400l0,0c-13.92,0-27.36-5.048-37.832-14.216   L8,344v144h444c19.88,0,36-16.12,36-36l0,0c0-7.792-2.528-15.368-7.2-21.6l-96.6-128.8c-10.592-14.128-24.872-25.072-41.264-31.624   l0,0C333.912,266.368,328,257.632,328,247.92l0,0c0-5.136,1.664-10.144,4.752-14.256l0,0c12.752-17,22.672-35.944,29.392-56.104   l11.736-35.208c1.264-3.792,4.816-6.352,8.824-6.352l0,0c5.136,0,9.296,4.16,9.296,9.296v54.992   c0,10.464,0.736,20.912,2.192,31.272l0,0c2.968,21.072,8.92,41.624,17.68,61.016l54.16,118.136L440,432z" data-original="#F9E0A6" class=""/>
	<path style="fill:#F9E0A6;" d="M332,224l-25.264-50.536c-1.68-3.344-5.104-5.464-8.848-5.464l0,0c-5.464,0-9.888,4.424-9.888,9.888   v38.848c0,15.168-4.488,30-12.904,42.624l0,0c-2.016,3.024-3.096,6.584-3.096,10.216l0,0c0,10.176,8.248,18.424,18.424,18.424l0,0   c18.2,0,34.904,10.056,43.416,26.144l59.832,113.048l42.128,9.144l30.232-25.616L332,224z" data-original="#F9E0A6" class=""/>
</g><g>
	<path style="fill:#B6C1CE" d="M264,424v-55.504c-15.704-5.568-32.256-8.496-48.984-8.496c-30.576,0-60.384,9.552-85.264,27.328   l-1.752,1.24V392v96h136v-32V424z" data-original="#ECECEC" class="" data-old_color="#ECECEC"/>
	<path style="fill:#B6C1CE" d="M152,320L152,320c-53.016,0-96-42.984-96-96v-16h192v16C248,277.016,205.016,320,152,320z" data-original="#ECECEC" class="" data-old_color="#ECECEC"/>
</g><path style="fill:#DFE0E1" d="M152,320c38.736,0,72.024-22.992,87.2-56.024C191.464,263.712,143.824,240,112,240c-32,0-48,16-48,16  l-1.768,1.768C75.904,294.104,110.888,320,152,320z" data-original="#FFEAA7" class="active-path" data-old_color="#D9DBDD"/><path style="fill:#EABD8C;" d="M208,64h-32c-13.256,0-24-10.744-24-24l0,0c0-13.256,10.744-24,24-24h32c13.256,0,24,10.744,24,24  l0,0C232,53.256,221.256,64,208,64z" data-original="#EABD8C" class=""/><path style="fill:#DFE0E1" d="M152,208L152,208c15.368-15.368,24-36.208,24-57.944V104h32v46.056c0,21.736,8.632,42.576,24,57.944  l0,0H152z" data-original="#FFEAA7" class="active-path" data-old_color="#D9DBDD"/><rect x="176" y="16" style="fill:#B27946;" width="32" height="48" data-original="#B27946" class=""/><g>
	<path style="fill:#EABD8C;" d="M126.984,389.296c-4.608,3.296-9.68,5.808-14.984,7.6V488h16v-99.432L126.984,389.296z" data-original="#EABD8C" class=""/>
	<path style="fill:#EABD8C;" d="M463.216,404.56l-51.344-111.984c-8.76-19.4-14.712-39.944-17.68-61.016   C392.736,221.2,392,210.752,392,200.288v-54.992c0-5.136-4.16-9.296-9.296-9.296c-4,0-7.552,2.56-8.824,6.36l-11.736,35.208   c-6.72,20.16-16.648,39.104-29.392,56.104c-3.088,4.104-4.752,9.104-4.752,14.248c0,9.712,5.912,18.448,14.928,22.056   c16.392,6.56,30.672,17.496,41.272,31.624L464,408l0,0L463.216,404.56z" data-original="#EABD8C" class=""/>
</g><path d="M487.192,425.6l-16.264-21.696L419.16,289.288c-8.464-18.744-14.192-38.536-17.048-58.84  c-1.4-9.96-2.112-20.112-2.112-30.16v-54.992c0-9.536-7.76-17.296-17.296-17.296c-7.456,0-14.056,4.76-16.408,11.832l-11.736,35.2  c-4.648,13.936-10.92,27.184-18.6,39.616l-22.08-44.768c-3.048-6.088-9.176-9.88-15.992-9.88c-9.864,0-17.888,8.024-17.888,17.888  v38.84c0,13.632-4,26.832-11.56,38.184c-2.912,4.36-4.44,9.432-4.44,14.664C264,284.152,275.848,296,290.424,296  c15.28,0,29.2,8.384,36.344,21.88l49.632,93.736c-3.08-1.24-6.128-2.552-9.12-3.976l-86.032-40.752  C260.68,357.152,237.784,352,215.016,352c-32.44,0-63.528,9.968-89.92,28.824l-2.76,1.968c-18.192,12.984-44.488,11.712-61.32-3.032  L0,326.368V496h452c24.256,0,44-19.744,44-44C496,442.536,492.872,433.168,487.192,425.6z M369.736,180.096l11.736-35.2  c0.176-0.536,0.672-0.896,1.232-0.896c0.72,0,1.296,0.576,1.296,1.296v54.992c0,10.8,0.768,21.696,2.272,32.384  c3.064,21.816,9.224,43.08,18.312,63.192l22.216,49.2L390.6,296.8c-11.488-15.312-26.936-27.16-44.696-34.256  c-6.016-2.4-9.904-8.144-9.904-14.632c0-3.384,1.12-6.744,3.152-9.456C352.44,220.752,362.728,201.112,369.736,180.096z M16,361.632  L50.488,391.8C62.424,402.248,77.736,408,93.584,408c9.224,0,18.128-2.064,26.416-5.736V480H16V361.632z M452,480H272v-32h-16v32  H136v-87.224C159.32,376.6,186.584,368,215.016,368c13.848,0,27.712,2.288,40.984,6.392V432h16v-51.624  c0.784,0.352,1.616,0.608,2.392,0.976l86.04,40.752C385.152,433.816,412.664,440,440,440v-16c-14.032,0-28.104-1.848-41.76-5.304  L340.904,310.4c-9.912-18.752-29.256-30.4-50.488-30.4c-5.744,0-10.416-4.672-10.416-10.424c0-2.064,0.6-4.064,1.752-5.784  c9.32-13.976,14.248-30.256,14.248-47.056v-38.84c0-1.76,2.8-2.416,3.576-0.84l25.104,50.176l1.112,2.528  c-3.704,5.296-5.792,11.68-5.792,18.152c0,13.064,7.832,24.632,19.96,29.496c15.032,6.008,28.12,16.04,37.84,28.992l96.6,128.8  c3.608,4.816,5.6,10.776,5.6,16.8C480,467.44,467.44,480,452,480z" data-original="#000000" class="" style="fill:#000000"/><path d="M168,70.864V80h16v-8h16v8h16v-9.136c13.768-3.576,24-15.992,24-30.864s-10.232-27.288-24-30.864V0h-16v8h-16V0h-16v9.136  C156.808,12.04,148.04,20.808,145.136,32H0v16h145.136C148.04,59.192,156.808,67.96,168,70.864z M224,40c0,5.896-3.24,11-8,13.776  V26.224C220.76,29,224,34.104,224,40z M200,24v32h-16V24H200z M168,26.224v27.544C163.24,51,160,45.896,160,40S163.24,29,168,26.224  z" data-original="#000000" class="" style="fill:#000000"/><path d="M184,96h-16v54.064c0,18.688-6.96,36.264-19.528,49.936H48v24c0,57.344,46.656,104,104,104s104-46.656,104-104v-24h-20.472  C222.96,186.328,216,168.752,216,150.064V96h-16v54.064c0,18.048,5.288,35.28,15.112,49.936h-46.224  C178.712,185.344,184,168.112,184,150.064V96z M152,312c-35.712,0-66.464-21.424-80.248-52.056C76.544,256.272,89.736,248,112,248  c13.304,0,30.776,4.816,49.272,9.896c19.944,5.488,42.096,11.52,64.792,13.432C210.408,295.744,183.096,312,152,312z M240,224  c0,11.224-2.192,21.92-6.04,31.8c-23.424-1-47.232-7.488-68.448-13.32C145.944,237.088,127.464,232,112,232  c-21.832,0-37.04,6.88-45.56,12.216C64.896,237.712,64,230.968,64,224v-8h176V224z" data-original="#000000" class="" style="fill:#000000"/></g> </svg>
