<?xml version="1.0" encoding="UTF-8"?>
<svg xmlns="http://www.w3.org/2000/svg" xmlns:xlink="http://www.w3.org/1999/xlink" version="1.1" id="Capa_1" x="0px" y="0px" viewBox="0 0 512 512" style="enable-background:new 0 0 512 512;" xml:space="preserve" width="512" height="512">
<g>
	<path style="fill:none;stroke:#000000;stroke-width:15;stroke-linecap:round;stroke-linejoin:round;stroke-miterlimit:10;" d="&#10;&#9;&#9;M58.447,247.836V204.59c0-5.523,4.477-10,10-10h286.566c5.523,0,10,4.477,10,10v42.8"/>
	<path style="fill:none;stroke:#000000;stroke-width:15;stroke-linecap:round;stroke-linejoin:round;stroke-miterlimit:10;" d="&#10;&#9;&#9;M408.638,452.908c-4.524,4.524-10.774,7.322-17.678,7.322H32.5c-13.807,0-25-11.193-25-25V294.836c0-24.853,20.147-45,45-45&#10;&#9;&#9;h318.461c14.442,0,27.296,6.804,35.53,17.381"/>
	<path style="fill:none;stroke:#000000;stroke-width:15;stroke-linecap:round;stroke-linejoin:round;stroke-miterlimit:10;" d="&#10;&#9;&#9;M469.924,187.367l6.853-90.866c1.821-24.141-17.276-44.732-41.485-44.732h0c-24.209,0-43.306,20.591-41.485,44.732l13.192,174.923&#10;&#9;&#9;c-24.116,15.427-40.915,49.966-40.915,90.102c0,54.513,30.986,98.704,69.209,98.704c38.223,0,69.209-44.191,69.209-98.704&#10;&#9;&#9;c0-40.137-16.799-74.675-40.915-90.102l3.973-52.687"/>
	<path style="fill:none;stroke:#000000;stroke-width:15;stroke-linecap:round;stroke-linejoin:round;stroke-miterlimit:10;" d="&#10;&#9;&#9;M188.433,133.518h23.621c23.796,0,40.258-23.78,31.88-46.053l0,0c-1.258-3.344,2.057-6.59,5.374-5.261l18.261,7.314&#10;&#9;&#9;c42.352,16.964,70.319,57.661,71.086,103.154"/>
	<path style="fill:none;stroke:#000000;stroke-width:15;stroke-linecap:round;stroke-linejoin:round;stroke-miterlimit:10;" d="&#10;&#9;&#9;M86.595,192.139c1.287-32.593,28.115-58.62,61.024-58.62h7.908"/>
	<path style="fill:none;stroke:#000000;stroke-width:15;stroke-linecap:round;stroke-linejoin:round;stroke-miterlimit:10;" d="&#10;&#9;&#9;M180.231,307.693h121.162c5.523,0,10,4.477,10,10v75.245c0,5.523-4.477,10-10,10H122.067c-5.523,0-10-4.477-10-10v-75.245&#10;&#9;&#9;c0-5.523,4.477-10,10-10h25.478"/>
	
		<line style="fill:none;stroke:#000000;stroke-width:15;stroke-linecap:round;stroke-linejoin:round;stroke-miterlimit:10;" x1="141.284" y1="163.402" x2="141.284" y2="163.402"/>
	
		<line style="fill:none;stroke:#000000;stroke-width:15;stroke-linecap:round;stroke-linejoin:round;stroke-miterlimit:10;" x1="208.069" y1="166.377" x2="208.069" y2="166.377"/>
	
		<line style="fill:none;stroke:#000000;stroke-width:15;stroke-linecap:round;stroke-linejoin:round;stroke-miterlimit:10;" x1="286.649" y1="166.377" x2="286.649" y2="166.377"/>
	
		<line style="fill:none;stroke:#000000;stroke-width:15;stroke-linecap:round;stroke-linejoin:round;stroke-miterlimit:10;" x1="260.296" y1="144.785" x2="260.296" y2="144.785"/>
</g>















</svg>
