<?xml version="1.0"?>
<svg xmlns="http://www.w3.org/2000/svg" xmlns:xlink="http://www.w3.org/1999/xlink" version="1.1" id="Capa_1" x="0px" y="0px" viewBox="0 0 496 496" style="enable-background:new 0 0 496 496;" xml:space="preserve" width="512px" height="512px" class=""><g><path style="fill:#B6C1CE" d="M115.816,288C108.176,265.568,104,241.312,104,216C104,101.128,189.96,8,296,8s192,93.128,192,208  c0,25.312-4.176,49.568-11.816,72H115.816z" data-original="#B6C1CE" class=""/><circle style="fill:#ECECEC;" cx="296" cy="248" r="184" data-original="#ECECEC" class=""/><path style="fill:#F9E0A6;" d="M312.728,201.592C376.76,228.752,432,216,432,216v136c0,75.112-60.888,136-136,136l0,0  c-48.672,0-91.368-25.568-115.4-64l-14.624-32c-3.888-12.648-5.976-26.08-5.976-40V216c0,0,79.336,21.16,152-13.944L312.728,201.592  z" data-original="#F9E0A6" class=""/><g>
	<path style="fill:#EABD8C;" d="M296,464c-48.672,0-91.368-25.568-115.4-64l-14.624-32c-3.888-12.648-5.976-26.08-5.976-40v24   c0,13.92,2.088,27.352,5.976,40l14.624,32c24.032,38.432,66.728,64,115.4,64c75.112,0,136-60.888,136-136v-24   C432,403.112,371.112,464,296,464z" data-original="#EABD8C" class=""/>
	<path style="fill:#EABD8C;" d="M312.728,201.592L312,202.056C239.336,237.16,160,216,160,216v25.68c0,0,79.336,21.16,152-13.944   l0.728-0.464C376.76,254.424,432,241.68,432,241.68V216C432,216,376.76,228.752,312.728,201.592z" data-original="#EABD8C" class=""/>
</g><g>
	<circle style="fill:#B6C1CE" cx="216" cy="304" r="56" data-original="#92E0C0" class="" data-old_color="#005BFF"/>
	<circle style="fill:#B6C1CE" cx="376" cy="304" r="56" data-original="#92E0C0" class="" data-old_color="#005BFF"/>
</g><g>
	<circle style="fill:#FFEAA7;" cx="376" cy="304" r="16" data-original="#FFEAA7" class=""/>
	<circle style="fill:#FFEAA7;" cx="216" cy="304" r="16" data-original="#FFEAA7" class=""/>
</g><path style="fill:#B6C1CE" d="M96,488L96,488c-48.6,0-88-39.4-88-88v-8h176v8C184,448.6,144.6,488,96,488z" data-original="#92E0C0" class="" data-old_color="#005BFF"/><path style="fill:#B6C1CE" d="M96,464c-43.128,0-78.944-31.048-86.48-72H8v8c0,48.6,39.4,88,88,88s88-39.4,88-88v-8h-1.52  C174.944,432.952,139.128,464,96,464z" data-original="#48C397" class="active-path" data-old_color="#48C397"/><path d="M296,432c-22.584,0-23.952-20.032-24-24.048L264,408h-8c0,13.832,8.36,40,40,40s40-26.168,40-40l-16-0.048  C319.952,411.968,318.584,432,296,432z" data-original="#000000" class="" style="fill:#000000"/><rect x="88" y="424" width="16" height="16" data-original="#000000" class="" style="fill:#000000"/><rect x="127.613" y="415.611" transform="matrix(-0.7074 0.7069 -0.7069 -0.7074 530.9727 627.3959)" width="16.001" height="16.001" data-original="#000000" class="" style="fill:#000000"/><rect x="48.424" y="415.607" transform="matrix(-0.7069 0.7074 -0.7074 -0.7069 395.9505 683.1256)" width="16.001" height="16.001" data-original="#000000" class="" style="fill:#000000"/><path d="M482.088,295.144C491.32,269.832,496,243.208,496,216C496,96.896,406.28,0,296,0S96,96.896,96,216  c0,27.208,4.68,53.832,13.912,79.144l0.128-0.048c7.688,30.416,22.696,58.632,44.28,82.248c0.392,2.224,0.752,4.456,1.248,6.656H0  v16c0,52.936,43.064,96,96,96c38.304,0,71.352-22.608,86.744-55.136C209.936,475.616,251.216,496,296,496  c70.712,0,129.552-51.28,141.616-118.576c21.616-23.632,36.648-51.88,44.344-82.328L482.088,295.144z M296,16  c92.6,0,169.4,74.744,182.12,171.64c-8.76-26.472-23.104-50.976-42.744-71.696l-11.608,11.008C454.872,159.768,472,202.76,472,248  c0,36.448-11.336,71.392-32,100.816V205.944l-9.8,2.256c-0.728,0.168-73.216,16.152-146.376-30.928l-8.656,13.456  c6.112,3.936,12.192,7.344,18.24,10.504c-64.616,24.136-130.648,7.232-131.36,7.04L152,205.608v143.216  c-20.664-29.432-32-64.368-32-100.816c0-70.72,42.048-134.32,107.136-162.016l-6.264-14.72  C169.24,93.248,131,135.976,113.928,187.304C126.768,90.568,203.512,16,296,16z M398.528,296  c-2.416-6.776-7.752-12.112-14.528-14.528V256.72c20.056,3.384,35.888,19.224,39.28,39.28H398.528z M376,312c-4.408,0-8-3.584-8-8  s3.592-8,8-8s8,3.584,8,8S380.408,312,376,312z M368,281.472c-6.776,2.416-12.112,7.752-14.528,14.528H328.72  c3.384-20.056,19.224-35.888,39.28-39.28V281.472z M353.472,312c2.416,6.776,7.752,12.112,14.528,14.528v24.752  c-20.056-3.384-35.888-19.224-39.28-39.28L353.472,312L353.472,312z M384,326.528c6.776-2.416,12.112-7.752,14.528-14.528h24.752  c-3.384,20.056-19.224,35.888-39.28,39.28L384,326.528L384,326.528z M193.472,312c2.416,6.776,7.752,12.112,14.528,14.528v24.752  c-20.056-3.384-35.888-19.224-39.28-39.28L193.472,312L193.472,312z M216,296c4.408,0,8,3.584,8,8s-3.592,8-8,8s-8-3.584-8-8  S211.592,296,216,296z M224,326.528c6.776-2.416,12.112-7.752,14.528-14.528h24.752c-3.384,20.056-19.224,35.888-39.28,39.28  V326.528z M238.528,296c-2.416-6.776-7.752-12.112-14.528-14.528V256.72c20.056,3.384,35.888,19.224,39.28,39.28H238.528z   M208,281.472c-6.776,2.416-12.112,7.752-14.528,14.528H168.72c3.384-20.056,19.224-35.888,39.28-39.28V281.472z M96,480  c-44.112,0-80-35.888-80-80h160C176,444.112,140.112,480,96,480z M296,480c-43.32,0-82.96-21.456-106.776-57.496  C190.976,415.272,192,407.76,192,400v-16h-19.88c-2.68-10.408-4.12-21.136-4.12-32v-5.808C179.736,359.528,196.88,368,216,368  c35.288,0,64-28.712,64-64s-28.712-64-64-64c-19.12,0-36.264,8.472-48,21.808v-35.872c23.84,4.504,85.792,12.008,145.024-15.584  c48.92,19.888,92.208,17.576,110.976,15.112v36.352C412.264,248.472,395.12,240,376,240c-35.288,0-64,28.712-64,64s28.712,64,64,64  c19.12,0,36.264-8.472,48-21.808V352C424,422.576,366.576,480,296,480z" data-original="#000000" class="" style="fill:#000000"/><path d="M296,72c43.544,0,85.336,16.024,117.664,45.112l10.704-11.896C389.088,73.48,343.504,56,296,56  c-20.52,0-40.712,3.216-60.024,9.576l5,15.192C258.664,74.952,277.184,72,296,72z" data-original="#000000" class="" style="fill:#000000"/></g> </svg>
