<?xml version="1.0"?>
<svg xmlns="http://www.w3.org/2000/svg" xmlns:xlink="http://www.w3.org/1999/xlink" version="1.1" id="Capa_1" x="0px" y="0px" viewBox="0 0 496 496" style="enable-background:new 0 0 496 496;" xml:space="preserve" width="512px" height="512px" class=""><g><path style="fill:#ECECEC;" d="M296,416V168c0-17.672,14.328-32,32-32h128c17.672,0,32,14.328,32,32v288c0,17.672-14.328,32-32,32  H328c-14.912,0-27.44-10.2-30.992-24L296,416z" data-original="#ECECEC" class=""/><path style="fill:#B6C1CE;" d="M456,464H328c-14.912,0-27.44-10.2-30.992-24L296,392v24l1.008,48c3.552,13.8,16.08,24,30.992,24h128  c17.672,0,32-14.328,32-32v-24C488,449.672,473.672,464,456,464z" data-original="#B6C1CE" class=""/><rect x="376" y="48" style="fill:#ECECEC;" width="32" height="64" data-original="#ECECEC" class=""/><g>
	<rect x="376" y="56" style="fill:#B6C1CE;" width="32" height="24" data-original="#B6C1CE" class=""/>
	<rect x="344" y="104" style="fill:#B6C1CE;" width="96" height="32" data-original="#B6C1CE" class=""/>
</g><polygon style="fill:#8C95A4;" points="432,56 272,56 272,32 400,8 432,8 " data-original="#8C95A4"/><rect x="8" y="360" style="fill:#B27946;" width="32" height="112" data-original="#B27946"/><g>
	<path style="fill:#FFEAA7;" d="M216,304L216,304c-17.672,0-32-14.328-32-32v-1.208c0-4.48,0.936-8.904,2.76-13L216,192   l29.24,65.792c1.824,4.096,2.76,8.52,2.76,13V272C248,289.672,233.672,304,216,304z" data-original="#FFEAA7"/>
	<circle style="fill:#FFEAA7;" cx="216" cy="144" r="16" data-original="#FFEAA7"/>
</g><polygon style="fill:#798699;" points="296,360 488,360 488,232 456,232 424,232 296,232 " data-original="#798699" class=""/><g>
	<path style="fill:#EEEFEF" d="M456,264h-16c-26.512,0-48,21.488-48,48v16h16c26.512,0,48-21.488,48-48V264z" data-original="#48C397" class="active-path" data-old_color="#E7EBEA"/>
	<path style="fill:#EEEFEF" d="M328,264h16c26.512,0,48,21.488,48,48v16h-16c-26.512,0-48-21.488-48-48V264z" data-original="#48C397" class="active-path" data-old_color="#E7EBEA"/>
</g><path style="fill:#F9E0A6;" d="M313.776,435.16l-58.44-45.448c-4.848-3.768-10.376-6.576-16.28-8.264l-40.592-11.6  c-4.288-1.224-8.728-1.848-13.184-1.848h-69.072c-2.8,0-5.584,0.248-8.344,0.728L40,384v56h48l43.032,43.032  c3.184,3.184,7.496,4.968,12,4.968C152.4,488,160,480.4,160,471.032c0-4.504-1.792-8.816-4.968-12L136,440l32.752-19.976  c4.752-2.64,10.104-4.024,15.536-4.024h37.04c6.92,0,13.664,2.248,19.2,6.4l51.168,38.376c2.792,2.096,6.192,3.224,9.68,3.224h2.512  c8.896,0,16.112-7.216,16.112-16.12C320,442.912,317.704,438.216,313.776,435.16z" data-original="#F9E0A6"/><polygon style="fill:#EABD8C;" points="56,380.4 40,384 40,440 56,440 " data-original="#EABD8C"/><path d="M456,128h-8V96h-32V64h24V0h-40L264,25.36V64h104v32h-32v32h-8c-22.056,0-40,17.944-40,40v236.984L260.256,383.4  c-5.68-4.424-12.072-7.664-19-9.648l-40.608-11.6c-5.016-1.424-10.184-2.152-15.368-2.152h-69.072c-3.256,0-6.528,0.28-9.736,0.848  L48,371.176V352H0v128h48v-32h36.688l40.688,40.688c4.712,4.72,10.984,7.312,17.656,7.312C156.8,496,168,484.8,168,471.032  c0-6.576-2.664-13.008-7.312-17.656l-12.672-12.672l24.624-13.68c3.544-1.976,7.576-3.024,11.656-3.024h37.04  c5.168,0,10.28,1.704,14.4,4.8l51.168,38.376c1.112,0.832,2.296,1.544,3.536,2.176C296.04,485.168,310.944,496,328,496h128  c22.056,0,40-17.944,40-40V168C496,145.944,478.056,128,456,128z M280,38.64L400.744,16H424v32H280V38.64z M384,64h16v32h-16V64z   M352,112h80v16h-80V112z M328,144h128c13.232,0,24,10.768,24,24v56h-32v16h32v112H304V240h128v-16H304v-56  C304,154.768,314.768,144,328,144z M32,464H16v-96h16V464z M245.336,416c-6.872-5.16-15.4-8-24-8h-37.04  c-6.784,0-13.504,1.744-19.432,5.032l-28.104,15.616c-0.472-1.032-0.76-2.136-0.76-3.272V408h-16v17.376  c0,6.408,2.496,12.44,7.032,16.968l22.344,22.344c1.664,1.672,2.624,3.984,2.624,6.344c0,4.944-4.024,8.968-8.968,8.968  c-2.4,0-4.648-0.928-6.344-2.624L91.312,432H48v-44.584l61.248-10.808c2.28-0.408,4.624-0.608,6.952-0.608h69.072  c3.704,0,7.408,0.512,10.992,1.536l40.592,11.6c4.952,1.416,9.512,3.728,13.568,6.88l58.44,45.464c1.96,1.52,3.128,3.912,3.128,6.4  c0.008,4.48-3.632,8.12-8.112,8.12h-2.512c-1.744,0-3.472-0.576-4.864-1.624L245.336,416z M456,480H328  c-7.336,0-13.992-3.368-18.448-8.744c10.56-2.568,18.448-12.04,18.448-23.376c0-7.504-3.392-14.448-9.312-19.032L304,417.424V368  h176v88C480,469.232,469.232,480,456,480z" data-original="#000000" class="" style="fill:#000000"/><path d="M216,312c22.056,0,40-17.944,40-40v-1.208c0-5.632-1.16-11.096-3.448-16.24L216,172.304l-36.552,82.24  C177.16,259.696,176,265.16,176,270.792V272C176,294.056,193.944,312,216,312z M192,270.792c0-3.376,0.696-6.656,2.064-9.744  L216,211.696l21.936,49.352c1.368,3.088,2.064,6.368,2.064,9.744V272c0,13.232-10.768,24-24,24s-24-10.768-24-24V270.792z" data-original="#000000" class="" style="fill:#000000"/><path d="M216,168c13.232,0,24-10.768,24-24s-10.768-24-24-24s-24,10.768-24,24S202.768,168,216,168z M216,136c4.408,0,8,3.584,8,8  s-3.592,8-8,8s-8-3.584-8-8S211.592,136,216,136z" data-original="#000000" class="" style="fill:#000000"/><path d="M392,283.304C382.2,266.984,364.384,256,344,256h-24v24c0,30.872,25.12,56,56,56h8h16h8c30.88,0,56-25.128,56-56v-24h-24  C419.616,256,401.8,266.984,392,283.304z M336,280v-8h8c20.792,0,37.736,16.008,39.624,36.312l-25.968-25.968l-11.312,11.312  l25.968,25.968C352.008,317.736,336,300.792,336,280z M440,272h8v8c0,20.792-16.008,37.736-36.312,39.624l25.968-25.968  l-11.312-11.312l-25.968,25.968C402.264,288.008,419.208,272,440,272z" data-original="#000000" class="" style="fill:#000000"/></g> </svg>
